<?xml version="1.0" encoding="UTF-8"?>
<svg version="1.1" xmlns="http://www.w3.org/2000/svg" width="400" height="400">
<path d="M0 0 C132 0 264 0 400 0 C400 132 400 264 400 400 C268 400 136 400 0 400 C0 268 0 136 0 0 Z " fill="#FEFEFE" transform="translate(0,0)"/>
<path d="M0 0 C11.57889372 9.00871498 21.7943771 19.48429763 32.14453125 29.84375 C33.96745072 31.66277336 35.79059018 33.48157629 37.61393738 35.3001709 C41.41358619 39.09240216 45.20946352 42.88835349 49.00268555 46.68701172 C53.36171047 51.05208807 57.72986749 55.40787152 62.10252839 59.7592845 C66.34710281 63.9840059 70.58317121 68.21715006 74.81607628 72.4535675 C76.60175469 74.23873569 78.38976996 76.02156976 80.18024635 77.80192566 C99.38123485 96.90759041 114.1095704 114.56929178 114.4375 142.8125 C114.30068952 164.87276722 106.18636799 182.26882957 91 198 C89.35601458 199.36120076 87.69302729 200.70030228 86 202 C83.13833918 204.71490898 80.52553788 207.53960555 78 210.5625 C75.56804854 213.44227883 72.99445392 215.69657391 70 218 C67.13833918 220.71490898 64.52553788 223.53960555 62 226.5625 C59.56804854 229.44227883 56.99445392 231.69657391 54 234 C51.13833918 236.71490898 48.52553788 239.53960555 46 242.5625 C43.56804854 245.44227883 40.99445392 247.69657391 38 250 C35.20076257 252.65568679 32.64401099 255.40726916 30.1875 258.375 C28.00142223 260.96922016 25.71513297 263.18529855 23.125 265.375 C20.2130675 267.83725555 17.75530349 270.38627856 15.3125 273.3125 C7.33344366 282.46265071 -2.79878144 289.40462828 -14 294 C-14.98484375 294.4125 -15.9696875 294.825 -16.984375 295.25 C-24.87322282 298.02071728 -32.37967598 298.38015838 -40.6875 298.4375 C-41.73252686 298.44765137 -42.77755371 298.45780273 -43.85424805 298.46826172 C-75.45774169 298.11425871 -95.4573865 274.69883834 -116.171875 254.03125 C-117.02245735 253.18349503 -117.8730397 252.33574005 -118.74939728 251.46229553 C-123.24170535 246.98487298 -127.73121248 242.50466515 -132.21826172 238.02197266 C-136.82653936 233.41919646 -141.44404012 228.82578992 -146.06373215 224.23447418 C-149.64289721 220.67400056 -153.2152709 217.10677066 -156.78586578 213.53770447 C-158.48487554 211.84170172 -160.18636245 210.14817644 -161.89046478 208.45729065 C-180.84625401 189.63819633 -195.65202405 170.73701992 -196.5 143 C-195.76099467 118.82737411 -184.78158031 101.4719383 -168.00463867 84.71411133 C-167.14331833 83.84607376 -166.28199799 82.97803619 -165.39457703 82.08369446 C-163.05937854 79.7328947 -160.71984066 77.38661171 -158.37747741 75.04296327 C-156.90817363 73.57222658 -155.44030773 72.10007001 -153.97292519 70.62741661 C-148.83650283 65.47256739 -143.69501888 60.32283115 -138.54858398 55.17797852 C-133.77811841 50.40871501 -129.01893398 45.62839633 -124.26487559 40.8427828 C-120.15797175 36.70960946 -116.04327294 32.58430451 -111.92257673 28.46488208 C-109.47241191 26.0152234 -107.02534581 23.56266773 -104.58614159 21.10209084 C-101.86320702 18.35594364 -99.12410985 15.62626291 -96.38354492 12.89770508 C-95.59409485 12.09701599 -94.80464478 11.2963269 -93.99127197 10.47137451 C-88.4928821 5.03361005 -82.66457923 0.90405032 -76 -3 C-75.18048953 -3.4832886 -74.36097906 -3.96657721 -73.51663494 -4.46451092 C-51.27058465 -17.1682057 -20.81839485 -14.25029254 0 0 Z " fill="#2A62FD" transform="translate(241,57)"/>
<path d="M0 0 C1.17175781 0.56074219 1.17175781 0.56074219 2.3671875 1.1328125 C15.00672162 7.55897294 23.50372461 18.58369439 28 32 C30.31652101 42.73321403 30.54454945 55.89140142 26 66 C25.60941406 66.88816406 25.21882813 67.77632813 24.81640625 68.69140625 C18.35140968 81.85948708 7.10419367 90.76407424 -6.5 95.9375 C-22.3336913 100.00463557 -37.05926551 96.8385964 -50.875 88.6875 C-61.68919381 81.36832825 -69.20346406 69.78984448 -72 57 C-72.98338822 45.9548579 -73.53330244 33.91112113 -68 24 C-67.47921875 23.06027344 -66.9584375 22.12054688 -66.421875 21.15234375 C-59.31412166 9.25806283 -49.75037295 1.60390579 -36.734375 -3.20703125 C-24.98897436 -5.70108599 -10.72719579 -5.71867929 0 0 Z " fill="#FDFDFE" transform="translate(222,154)"/>
<path d="M0 0 C3.03378522 2.93592118 5.86852949 5.97558873 8.65209961 9.14990234 C15.6745361 16.96894721 23.18694103 24.31023924 30.62890625 31.7265625 C32.23052041 33.32630818 33.83191141 34.92627731 35.43309021 36.52645874 C39.61799119 40.7075684 43.80588804 44.88566442 47.9944458 49.06311035 C52.28003467 53.33841178 56.56274218 57.61659748 60.84570312 61.89453125 C69.22767336 70.26582397 77.61281581 78.63393137 86 87 C84.515 87.495 84.515 87.495 83 88 C82.34 87.01 81.68 86.02 81 85 C78.9571488 84.13523477 76.90799464 83.55401654 74.77734375 82.94140625 C73 82 73 82 72.25390625 79.90234375 C72.17011719 79.27457031 72.08632812 78.64679688 72 78 C71.34 78 70.68 78 70 78 C70 77.34 70 76.68 70 76 C68.515 75.505 68.515 75.505 67 75 C67.33 74.34 67.66 73.68 68 73 C67.34 73 66.68 73 66 73 C65.896875 72.360625 65.79375 71.72125 65.6875 71.0625 C65.460625 70.381875 65.23375 69.70125 65 69 C63.515 68.505 63.515 68.505 62 68 C62 68.66 62 69.32 62 70 C62.66 70 63.32 70 64 70 C63.67 71.65 63.34 73.3 63 75 C57.50704225 69.92957746 57.50704225 69.92957746 57 66 C56.7215625 64.88625 56.7215625 64.88625 56.4375 63.75 C56.293125 63.1725 56.14875 62.595 56 62 C55.34 62 54.68 62 54 62 C54 61.34 54 60.68 54 60 C53.01 59.67 52.02 59.34 51 59 C51.495 58.01 51.495 58.01 52 57 C51.34 57 50.68 57 50 57 C49.8453125 56.0409375 49.8453125 56.0409375 49.6875 55.0625 C49.460625 54.381875 49.23375 53.70125 49 53 C48.01 52.67 47.02 52.34 46 52 C46 52.66 46 53.32 46 54 C46.66 54 47.32 54 48 54 C47.67 55.65 47.34 57.3 47 59 C41.50704225 53.92957746 41.50704225 53.92957746 41 50 C40.814375 49.2575 40.62875 48.515 40.4375 47.75 C40.293125 47.1725 40.14875 46.595 40 46 C39.34 46 38.68 46 38 46 C38 45.34 38 44.68 38 44 C37.01 43.67 36.02 43.34 35 43 C35.495 42.01 35.495 42.01 36 41 C35.34 41 34.68 41 34 41 C33.8453125 40.0409375 33.8453125 40.0409375 33.6875 39.0625 C33.460625 38.381875 33.23375 37.70125 33 37 C32.01 36.67 31.02 36.34 30 36 C30 36.66 30 37.32 30 38 C30.66 38 31.32 38 32 38 C31.67 39.65 31.34 41.3 31 43 C25.50704225 37.92957746 25.50704225 37.92957746 25 34 C24.814375 33.2575 24.62875 32.515 24.4375 31.75 C24.293125 31.1725 24.14875 30.595 24 30 C23.34 30 22.68 30 22 30 C22 29.34 22 28.68 22 28 C21.01 27.67 20.02 27.34 19 27 C19.33 26.34 19.66 25.68 20 25 C19.34 25 18.68 25 18 25 C17.67 24.34 17.34 23.68 17 23 C16.34 24.32 15.68 25.64 15 27 C9.50704225 21.92957746 9.50704225 21.92957746 9 18 C8.42036234 15.60899466 7.77999376 13.33998128 7 11 C6.154375 10.525625 5.30875 10.05125 4.4375 9.5625 C3.633125 9.046875 2.82875 8.53125 2 8 C2 6.68 2 5.36 2 4 C1.01 3.67 0.02 3.34 -1 3 C-0.67 2.01 -0.34 1.02 0 0 Z " fill="#F7FAF7" transform="translate(58,242)"/>
<path d="M0 0 C1.14981574 3.80323668 0.51561044 5.34470424 -1 9 C-0.9690625 10.2684375 -0.9690625 10.2684375 -0.9375 11.5625 C-1.01684928 14.65712197 -2.16136325 15.57299949 -4 18 C-6.40650974 28.70816079 -5.88820681 40.76833949 -2.80078125 51.23046875 C-1.49505514 55.74637026 -0.77496725 60.36843105 0 65 C-7.05306726 57.94693274 -8.09528182 42.93859421 -8.375 33.4375 C-8.375 21.92520719 -5.92566232 9.94664746 0 0 Z " fill="#4771DA" transform="translate(53,167)"/>
<path d="M0 0 C0 0.66 0 1.32 0 2 C8.3211888 5.17657886 16.28640237 5.53405212 25.125 5.6875 C26.47659385 5.72075453 27.82815773 5.75525136 29.1796875 5.79101562 C32.45304112 5.87284947 35.72614854 5.94221113 39 6 C34.32429879 9.11713414 29.49968926 8.32835839 24 8.3125 C22.91332031 8.32861328 21.82664063 8.34472656 20.70703125 8.36132812 C11.26060429 8.36697115 3.0127976 6.46914682 -5.6875 2.8125 C-6.51636719 2.46832031 -7.34523437 2.12414062 -8.19921875 1.76953125 C-8.79347656 1.51558594 -9.38773438 1.26164062 -10 1 C-10 0.67 -10 0.34 -10 0 C-2.25 -1.125 -2.25 -1.125 0 0 Z " fill="#416CDD" transform="translate(177,347)"/>
<path d="M0 0 C0 0.66 0 1.32 0 2 C-0.969375 2.474375 -1.93875 2.94875 -2.9375 3.4375 C-5.80477437 4.70193947 -5.80477437 4.70193947 -7 6 C-10.35680989 6.53690911 -13.72245328 6.96627385 -17.09375 7.40234375 C-18.53234375 7.69818359 -18.53234375 7.69818359 -20 8 C-20.33 8.66 -20.66 9.32 -21 10 C-21.66 9.67 -22.32 9.34 -23 9 C-25.7328711 8.79045078 -28.45067161 8.62492708 -31.1875 8.5 C-42.44252956 7.97287806 -42.44252956 7.97287806 -47 7 C-47.66 6.01 -48.32 5.02 -49 4 C-48.25492188 4.15726562 -47.50984375 4.31453125 -46.7421875 4.4765625 C-29.71372954 6.85841361 -15.61764822 0 0 0 Z " fill="#D9EAFE" transform="translate(231,349)"/>
<path d="M0 0 C0.33 0 0.66 0 1 0 C2.83477149 7.03938226 3.34917701 13.55045236 3.3125 20.8125 C3.31121094 21.86824219 3.30992187 22.92398438 3.30859375 24.01171875 C3.21741888 31.39688334 2.57189514 38.01914176 0 45 C-0.33 45 -0.66 45 -1 45 C-0.9285376 44.17935059 -0.8570752 43.35870117 -0.78344727 42.51318359 C-0.0367976 33.19212659 0.12079112 23.96917582 0.0625 14.625 C0.05746589 13.1953141 0.05290643 11.76562645 0.04882812 10.3359375 C0.03799465 6.89058755 0.02083984 3.44530573 0 0 Z " fill="#406ADB" transform="translate(352,179)"/>
<path d="M0 0 C3.77638942 1.48118385 7.41190142 3.1090798 11 5 C7.35002274 6.21665909 6.25658868 5.33191316 2.91015625 3.76171875 C0.03781753 2.61630761 -2.95041728 2.41857018 -6 2 C-6.66 1.34 -7.32 0.68 -8 0 C-11.56922376 -0.95315153 -15.05681516 -1.17859736 -18.73828125 -1.31640625 C-19.80498047 -1.35830078 -20.87167969 -1.40019531 -21.97070312 -1.44335938 C-23.07349609 -1.48267578 -24.17628906 -1.52199219 -25.3125 -1.5625 C-26.99569336 -1.62727539 -26.99569336 -1.62727539 -28.71289062 -1.69335938 C-31.47514569 -1.79914787 -34.2374863 -1.90123672 -37 -2 C-26.51677684 -7.72019661 -10.78634283 -3.51455913 0 0 Z " fill="#4972D6" transform="translate(225,49)"/>
<path d="M0 0 C7.84682771 2.92593576 7.84682771 2.92593576 10.25390625 4.08984375 C13.92498662 5.30657451 17.4299972 5.25276983 21.25 5.1875 C21.9821875 5.18685547 22.714375 5.18621094 23.46875 5.18554688 C27.0295914 5.47417634 27.0295914 5.47417634 30 4 C32.33297433 3.95907063 34.66705225 3.95758277 37 4 C37.33 3.01 37.66 2.02 38 1 C40.31 1 42.62 1 45 1 C35.99172465 8.17846942 24.45455343 7.94522272 13.41748047 7.28515625 C7.88367439 6.63241079 2.9420927 4.52515685 -2 2 C-1.34 1.34 -0.68 0.68 0 0 Z " fill="#D7ECFD" transform="translate(179,244)"/>
<path d="M0 0 C1.25393555 0.02707031 1.25393555 0.02707031 2.53320312 0.0546875 C4.58513228 0.10158874 6.63646756 0.17332589 8.6875 0.25 C8.6875 0.91 8.6875 1.57 8.6875 2.25 C10.70572917 2.15234375 12.72395833 2.0546875 14.7421875 1.95703125 C15.38414062 2.05371094 16.02609375 2.15039062 16.6875 2.25 C17.6775 3.735 17.6775 3.735 18.6875 5.25 C17.80964844 5.08628906 16.93179688 4.92257813 16.02734375 4.75390625 C10.13710667 3.91244381 4.18542833 4.14540476 -1.75 4.1875 C-3.56274414 4.19426758 -3.56274414 4.19426758 -5.41210938 4.20117188 C-8.37895789 4.21289855 -11.3457027 4.22931104 -14.3125 4.25 C-9.79871777 -0.4200639 -6.09594997 -0.25018895 0 0 Z " fill="#3064E1" transform="translate(199.3125,146.75)"/>
<path d="M0 0 C0.33 0 0.66 0 1 0 C1.02578125 1.24394531 1.0515625 2.48789063 1.078125 3.76953125 C1.47860643 17.08989197 3.46903129 26.71947835 10.92578125 38.00390625 C11.28027344 38.66261719 11.63476562 39.32132813 12 40 C11.67 40.66 11.34 41.32 11 42 C10.21625 41.360625 9.4325 40.72125 8.625 40.0625 C6.20460719 38.01857687 6.20460719 38.01857687 4 37 C3.5859375 34.93359375 3.5859375 34.93359375 3.375 32.4375 C3.30023438 31.61121094 3.22546875 30.78492188 3.1484375 29.93359375 C3.07496094 28.97646484 3.07496094 28.97646484 3 28 C2.34 28 1.68 28 1 28 C0.18101378 24.42649959 -0.11811958 21.14340521 -0.09765625 17.48046875 C-0.09443359 16.45888672 -0.09121094 15.43730469 -0.08789062 14.38476562 C-0.07951172 13.32966797 -0.07113281 12.27457031 -0.0625 11.1875 C-0.05798828 10.11306641 -0.05347656 9.03863281 -0.04882812 7.93164062 C-0.03707729 5.28770317 -0.02064787 2.64388048 0 0 Z " fill="#5B80E7" transform="translate(149,192)"/>
<path d="M0 0 C0.33 0 0.66 0 1 0 C1.4375295 14.87600301 0.51931315 26.22103027 -8 39 C-8.99 39.66 -9.98 40.32 -11 41 C-10.67 39.35 -10.34 37.7 -10 36 C-9.34 36 -8.68 36 -8 36 C-7.80664062 35.24074219 -7.61328125 34.48148438 -7.4140625 33.69921875 C-7.15367187 32.70535156 -6.89328125 31.71148437 -6.625 30.6875 C-6.36976563 29.70136719 -6.11453125 28.71523437 -5.8515625 27.69921875 C-5 25 -5 25 -3 22 C-1.03479764 17.17889204 -0.59765036 12.75523542 -0.375 7.625 C-0.33632812 6.88894531 -0.29765625 6.15289062 -0.2578125 5.39453125 C-0.16442002 3.59672594 -0.0811629 1.79839892 0 0 Z " fill="#D7ECFD" transform="translate(250,192)"/>
<path d="M0 0 C0 1.65 0 3.3 0 5 C-0.84304687 5.06058594 -1.68609375 5.12117187 -2.5546875 5.18359375 C-3.65039062 5.26738281 -4.74609375 5.35117188 -5.875 5.4375 C-7.51082031 5.55931641 -7.51082031 5.55931641 -9.1796875 5.68359375 C-11.94728971 5.83001703 -11.94728971 5.83001703 -14 7 C-15.37548156 7.08308638 -16.75485796 7.10736016 -18.1328125 7.09765625 C-18.93847656 7.09443359 -19.74414062 7.09121094 -20.57421875 7.08789062 C-21.41597656 7.07951172 -22.25773438 7.07113281 -23.125 7.0625 C-23.97449219 7.05798828 -24.82398438 7.05347656 -25.69921875 7.04882812 C-27.79950909 7.03702874 -29.8997633 7.01909306 -32 7 C-32 6.34 -32 5.68 -32 5 C-30.25976562 4.96132812 -30.25976562 4.96132812 -28.484375 4.921875 C-19.86584344 4.64007267 -12.318094 4.01303391 -4.1875 0.83984375 C-2 0 -2 0 0 0 Z " fill="#3D6CD3" transform="translate(224,246)"/>
<path d="M0 0 C-0.96099609 0.61875 -0.96099609 0.61875 -1.94140625 1.25 C-13.16653087 8.74456905 -18.45886721 17.00824759 -24 29 C-24.33 29 -24.66 29 -25 29 C-25 27.02 -25 25.04 -25 23 C-24.34 23 -23.68 23 -23 23 C-22.896875 22.29875 -22.79375 21.5975 -22.6875 20.875 C-21.20503005 14.67558021 -18.58281789 11.26950007 -13.62109375 7.4921875 C-11.79811931 5.81417247 -11.09665725 4.19775442 -10 2 C-6.21143964 -0.38844023 -4.26215148 -1.35613911 0 0 Z " fill="#3E6AD8" transform="translate(176,156)"/>
<path d="M0 0 C0.66 1.32 1.32 2.64 2 4 C-0.17424117 6.50037734 -1.73045798 7.43628586 -5 8 C-5 8.66 -5 9.32 -5 10 C-6.98 10 -8.96 10 -11 10 C-11.66 11.32 -12.32 12.64 -13 14 C-14.32 13.67 -15.64 13.34 -17 13 C-11.63820705 7.95106821 -6.61519148 3.30759574 0 0 Z " fill="#2963F0" transform="translate(165,54)"/>
<path d="M0 0 C5.66129431 4.69766975 10.85228904 9.74723372 16 15 C15.01 15.495 15.01 15.495 14 16 C11.375 15.0625 11.375 15.0625 9 14 C9 12.68 9 11.36 9 10 C8.21625 9.690625 7.4325 9.38125 6.625 9.0625 C4 8 4 8 2 7 C1.67 7.66 1.34 8.32 1 9 C-0.32 8.67 -1.64 8.34 -3 8 C-2.67 6.68 -2.34 5.36 -2 4 C-1.34 4 -0.68 4 0 4 C0 2.68 0 1.36 0 0 Z " fill="#3368EB" transform="translate(311,126)"/>
<path d="M0 0 C5.66129431 4.69766975 10.85228904 9.74723372 16 15 C15.01 15.495 15.01 15.495 14 16 C11.375 15.0625 11.375 15.0625 9 14 C9 12.68 9 11.36 9 10 C8.21625 9.690625 7.4325 9.38125 6.625 9.0625 C4 8 4 8 2 7 C1.67 7.66 1.34 8.32 1 9 C-0.32 8.67 -1.64 8.34 -3 8 C-2.67 6.68 -2.34 5.36 -2 4 C-1.34 4 -0.68 4 0 4 C0 2.68 0 1.36 0 0 Z " fill="#3368EB" transform="translate(295,110)"/>
<path d="M0 0 C5.66129431 4.69766975 10.85228904 9.74723372 16 15 C15.01 15.495 15.01 15.495 14 16 C11.375 15.0625 11.375 15.0625 9 14 C9 12.68 9 11.36 9 10 C8.21625 9.690625 7.4325 9.38125 6.625 9.0625 C4 8 4 8 2 7 C1.67 7.66 1.34 8.32 1 9 C-0.32 8.67 -1.64 8.34 -3 8 C-2.67 6.68 -2.34 5.36 -2 4 C-1.34 4 -0.68 4 0 4 C0 2.68 0 1.36 0 0 Z " fill="#3368EB" transform="translate(279,94)"/>
<path d="M0 0 C5.66129431 4.69766975 10.85228904 9.74723372 16 15 C15.01 15.495 15.01 15.495 14 16 C11.375 15.0625 11.375 15.0625 9 14 C9 12.68 9 11.36 9 10 C8.21625 9.690625 7.4325 9.38125 6.625 9.0625 C4 8 4 8 2 7 C1.67 7.66 1.34 8.32 1 9 C-0.32 8.67 -1.64 8.34 -3 8 C-2.67 6.68 -2.34 5.36 -2 4 C-1.34 4 -0.68 4 0 4 C0 2.68 0 1.36 0 0 Z " fill="#3368EB" transform="translate(263,78)"/>
<path d="M0 0 C0 3.93235469 -1.54945341 5.02964049 -4 8 C-4.33 8.99 -4.66 9.98 -5 11 C-8.5 12 -8.5 12 -12 13 C-12.33 13.99 -12.66 14.98 -13 16 C-13.99 16 -14.98 16 -16 16 C-16.33 16.99 -16.66 17.98 -17 19 C-19 21 -19 21 -21 22 C-23.125 21.0625 -23.125 21.0625 -25 20 C-24.32195312 19.5875 -23.64390625 19.175 -22.9453125 18.75 C-14.39834957 13.44662134 -6.13899722 8.08277994 0 0 Z " fill="#D5EBFD" transform="translate(257,328)"/>
<path d="M0 0 C0.7109375 1.75390625 0.7109375 1.75390625 1 4 C-0.3984375 5.96484375 -0.3984375 5.96484375 -2.375 7.9375 C-5.3350258 10.90342227 -6.48971197 12.80834835 -7 17 C-7.61875 17.144375 -8.2375 17.28875 -8.875 17.4375 C-11.03258322 17.93152225 -11.03258322 17.93152225 -13 19 C-11.724278 14.47217838 -10.06637472 11.42050595 -7.0625 7.8125 C-6.02802734 6.55373047 -6.02802734 6.55373047 -4.97265625 5.26953125 C-3.3740726 3.43036867 -1.75444563 1.68844767 0 0 Z " fill="#3C68E0" transform="translate(67,148)"/>
<path d="M0 0 C1.32 0.33 2.64 0.66 4 1 C3.42415568 3.38564077 2.77772405 5.66682784 2 8 C2.5775 7.67 3.155 7.34 3.75 7 C6 6 6 6 10 6 C9.0022242 8.99332739 8.2477975 9.94766315 6 12 C6.66 12.33 7.32 12.66 8 13 C5 13 5 13 2.73828125 11.03125 C1.53751953 9.77828125 1.53751953 9.77828125 0.3125 8.5 C-0.49574219 7.6646875 -1.30398437 6.829375 -2.13671875 5.96875 C-2.75160156 5.3190625 -3.36648437 4.669375 -4 4 C-2.68 3.34 -1.36 2.68 0 2 C0 1.34 0 0.68 0 0 Z " fill="#386BE7" transform="translate(130,308)"/>
<path d="M0 0 C1.32 0.33 2.64 0.66 4 1 C3.42415568 3.38564077 2.77772405 5.66682784 2 8 C2.5775 7.67 3.155 7.34 3.75 7 C6 6 6 6 10 6 C9.0022242 8.99332739 8.2477975 9.94766315 6 12 C6.66 12.33 7.32 12.66 8 13 C5 13 5 13 2.73828125 11.03125 C1.53751953 9.77828125 1.53751953 9.77828125 0.3125 8.5 C-0.49574219 7.6646875 -1.30398437 6.829375 -2.13671875 5.96875 C-2.75160156 5.3190625 -3.36648437 4.669375 -4 4 C-2.68 3.34 -1.36 2.68 0 2 C0 1.34 0 0.68 0 0 Z " fill="#386BE7" transform="translate(114,292)"/>
<path d="M0 0 C1.32 0.33 2.64 0.66 4 1 C3.42415568 3.38564077 2.77772405 5.66682784 2 8 C2.5775 7.67 3.155 7.34 3.75 7 C6 6 6 6 10 6 C9.0022242 8.99332739 8.2477975 9.94766315 6 12 C6.66 12.33 7.32 12.66 8 13 C5 13 5 13 2.73828125 11.03125 C1.53751953 9.77828125 1.53751953 9.77828125 0.3125 8.5 C-0.49574219 7.6646875 -1.30398437 6.829375 -2.13671875 5.96875 C-2.75160156 5.3190625 -3.36648437 4.669375 -4 4 C-2.68 3.34 -1.36 2.68 0 2 C0 1.34 0 0.68 0 0 Z " fill="#386BE7" transform="translate(98,276)"/>
<path d="M0 0 C1.32 0.33 2.64 0.66 4 1 C3.42415568 3.38564077 2.77772405 5.66682784 2 8 C2.5775 7.67 3.155 7.34 3.75 7 C6 6 6 6 10 6 C9.0022242 8.99332739 8.2477975 9.94766315 6 12 C6.66 12.33 7.32 12.66 8 13 C5 13 5 13 2.73828125 11.03125 C1.53751953 9.77828125 1.53751953 9.77828125 0.3125 8.5 C-0.49574219 7.6646875 -1.30398437 6.829375 -2.13671875 5.96875 C-2.75160156 5.3190625 -3.36648437 4.669375 -4 4 C-2.68 3.34 -1.36 2.68 0 2 C0 1.34 0 0.68 0 0 Z " fill="#386BE7" transform="translate(82,260)"/>
<path d="M0 0 C5.45156722 3.27094033 9.61869443 7.41853326 14 12 C12.02 12.99 12.02 12.99 10 14 C9.01 13.34 8.02 12.68 7 12 C7 11.34 7 10.68 7 10 C6.01 10 5.02 10 4 10 C4 9.34 4 8.68 4 8 C3.34 8 2.68 8 2 8 C1.34 5.36 0.68 2.72 0 0 Z " fill="#3B69E8" transform="translate(246,62)"/>
<path d="M0 0 C1.299375 0.7734375 1.299375 0.7734375 2.625 1.5625 C8.60060017 4.98589311 14.8291458 7.94839609 21 11 C22.32 11.66 23.64 12.32 25 13 C20.545 13.495 20.545 13.495 16 14 C16 13.01 16 12.02 16 11 C15.01 11 14.02 11 13 11 C13 10.34 13 9.68 13 9 C7.06 7.515 7.06 7.515 1 6 C1.33 4.68 1.66 3.36 2 2 C1.34 2 0.68 2 0 2 C0 1.34 0 0.68 0 0 Z " fill="#466EDF" transform="translate(165,238)"/>
<path d="M0 0 C0.33 1.32 0.66 2.64 1 4 C0.31164062 4.56267578 0.31164062 4.56267578 -0.390625 5.13671875 C-3.30696483 7.56904419 -5.82347283 9.7663611 -8.125 12.8125 C-10.34620071 15.40390082 -11.65984783 15.72165399 -15 16 C-10.30233025 10.33870569 -5.25276628 5.14771096 0 0 Z " fill="#3A68DA" transform="translate(83,132)"/>
<path d="M0 0 C0.33 1.32 0.66 2.64 1 4 C0.31164062 4.56267578 0.31164062 4.56267578 -0.390625 5.13671875 C-3.30696483 7.56904419 -5.82347283 9.7663611 -8.125 12.8125 C-10.34620071 15.40390082 -11.65984783 15.72165399 -15 16 C-10.30233025 10.33870569 -5.25276628 5.14771096 0 0 Z " fill="#3A68DA" transform="translate(99,116)"/>
<path d="M0 0 C0.33 1.32 0.66 2.64 1 4 C0.31164062 4.56267578 0.31164062 4.56267578 -0.390625 5.13671875 C-3.30696483 7.56904419 -5.82347283 9.7663611 -8.125 12.8125 C-10.34620071 15.40390082 -11.65984783 15.72165399 -15 16 C-10.30233025 10.33870569 -5.25276628 5.14771096 0 0 Z " fill="#3A68DA" transform="translate(115,100)"/>
<path d="M0 0 C0.33 1.32 0.66 2.64 1 4 C0.31164062 4.56267578 0.31164062 4.56267578 -0.390625 5.13671875 C-3.30696483 7.56904419 -5.82347283 9.7663611 -8.125 12.8125 C-10.34620071 15.40390082 -11.65984783 15.72165399 -15 16 C-10.30233025 10.33870569 -5.25276628 5.14771096 0 0 Z " fill="#3A68DA" transform="translate(131,84)"/>
<path d="M0 0 C0.33 1.32 0.66 2.64 1 4 C0.31164062 4.56267578 0.31164062 4.56267578 -0.390625 5.13671875 C-3.30696483 7.56904419 -5.82347283 9.7663611 -8.125 12.8125 C-10.34620071 15.40390082 -11.65984783 15.72165399 -15 16 C-10.30233025 10.33870569 -5.25276628 5.14771096 0 0 Z " fill="#3A68DA" transform="translate(147,68)"/>
<path d="M0 0 C0.763125 0.309375 1.52625 0.61875 2.3125 0.9375 C4.18789677 1.67893593 6.08684652 2.36228217 8 3 C8 2.34 8 1.68 8 1 C9.32 1.33 10.64 1.66 12 2 C11.01 2.99 10.02 3.98 9 5 C10.32 5 11.64 5 13 5 C14.32 7.31 15.64 9.62 17 12 C10.32594822 9.91435882 4.68401038 5.07434458 0 0 Z " fill="#3B6BE1" transform="translate(150,335)"/>
<path d="M0 0 C4.13621084 3.3810038 7.81316569 6.66590534 11 11 C10.01 11.495 10.01 11.495 9 12 C9 11.34 9 10.68 9 10 C8.21625 9.690625 7.4325 9.38125 6.625 9.0625 C4 8 4 8 2 7 C1.67 7.66 1.34 8.32 1 9 C0.01 8.67 -0.98 8.34 -2 8 C-2.6875 5.9375 -2.6875 5.9375 -3 4 C-2.01 4 -1.02 4 0 4 C0 2.68 0 1.36 0 0 Z " fill="#3468EB" transform="translate(327,142)"/>
<path d="M0 0 C4.20393865 0.76836694 5.52187506 2.54832597 8 6 C8.66 5.67 9.32 5.34 10 5 C10.33 6.98 10.66 8.96 11 11 C11.66 11 12.32 11 13 11 C13.33 12.98 13.66 14.96 14 17 C13.34 17.33 12.68 17.66 12 18 C11.63648438 17.3709375 11.27296875 16.741875 10.8984375 16.09375 C7.58215671 10.44756937 4.05183182 5.14381487 0 0 Z " fill="#3D66DF" transform="translate(234,161)"/>
<path d="M0 0 C4.91935902 4.11619836 9.52647956 8.40410362 14 13 C10.88772805 13 8.05847848 12.54372951 5 12 C5.33 11.01 5.66 10.02 6 9 C5.34 9 4.68 9 4 9 C3.731875 8.236875 3.46375 7.47375 3.1875 6.6875 C2.05575888 4.12619116 1.08776599 2.80307062 -1 1 C-0.67 0.67 -0.34 0.34 0 0 Z " fill="#F0F8F9" transform="translate(104,290)"/>
<path d="M0 0 C4.91935902 4.11619836 9.52647956 8.40410362 14 13 C10.88772805 13 8.05847848 12.54372951 5 12 C5.33 11.01 5.66 10.02 6 9 C5.34 9 4.68 9 4 9 C3.731875 8.236875 3.46375 7.47375 3.1875 6.6875 C2.05575888 4.12619116 1.08776599 2.80307062 -1 1 C-0.67 0.67 -0.34 0.34 0 0 Z " fill="#F0F8F9" transform="translate(88,274)"/>
<path d="M0 0 C3.3 0.33 6.6 0.66 10 1 C9.01 1.495 9.01 1.495 8 2 C7.83312552 4.41645782 7.83312552 4.41645782 8 7 C8.66 7.66 9.32 8.32 10 9 C7 9 7 9 5.17578125 7.5390625 C4.56089844 6.90742188 3.94601563 6.27578125 3.3125 5.625 C2.68988281 4.99851563 2.06726563 4.37203125 1.42578125 3.7265625 C0 2 0 2 0 0 Z " fill="#3B6AE8" transform="translate(64,248)"/>
<path d="M0 0 C1.485 0.99 1.485 0.99 3 2 C2.88630789 4.45933991 2.75957349 6.9167909 2.625 9.375 C2.5940625 10.07367188 2.563125 10.77234375 2.53125 11.4921875 C2.2265625 16.7734375 2.2265625 16.7734375 0 19 C0 12.73 0 6.46 0 0 Z " fill="#D1E5FE" transform="translate(355,191)"/>
<path d="M0 0 C0.66 0.66 1.32 1.32 2 2 C0.02 5.96 -1.96 9.92 -4 14 C-4.66 13.67 -5.32 13.34 -6 13 C-5.7215625 12.1028125 -5.7215625 12.1028125 -5.4375 11.1875 C-4.77906313 8.83591238 -4.77906313 8.83591238 -6 6 C-5.34 6 -4.68 6 -4 6 C-3.67 4.68 -3.34 3.36 -3 2 C-2.01 2 -1.02 2 0 2 C0 1.34 0 0.68 0 0 Z " fill="#EEF3FC" transform="translate(54,161)"/>
<path d="M0 0 C0.598125 0.350625 1.19625 0.70125 1.8125 1.0625 C1.8125 1.7225 1.8125 2.3825 1.8125 3.0625 C2.4725 3.3925 3.1325 3.7225 3.8125 4.0625 C3.4825 4.7225 3.1525 5.3825 2.8125 6.0625 C3.410625 6.330625 4.00875 6.59875 4.625 6.875 C6.78474808 8.04743467 8.17040256 9.25619282 9.8125 11.0625 C9.4825 11.7225 9.1525 12.3825 8.8125 13.0625 C7.22790185 11.64724822 5.64487609 10.2302358 4.0625 8.8125 C3.18078125 8.02359375 2.2990625 7.2346875 1.390625 6.421875 C-0.86616165 4.35657328 -3.04489926 2.24514936 -5.1875 0.0625 C-2.1875 -0.9375 -2.1875 -0.9375 0 0 Z " fill="#DEEFFC" transform="translate(246.1875,56.9375)"/>
<path d="M0 0 C1.32 0.33 2.64 0.66 4 1 C3.42415568 3.38564077 2.77772405 5.66682784 2 8 C3.32 7.67 4.64 7.34 6 7 C6 7.66 6 8.32 6 9 C5.34 9 4.68 9 4 9 C3.67 9.66 3.34 10.32 3 11 C0.69 8.69 -1.62 6.38 -4 4 C-2.68 3.34 -1.36 2.68 0 2 C0 1.34 0 0.68 0 0 Z " fill="#396BE5" transform="translate(146,324)"/>
<path d="M0 0 C0.969375 0.845625 1.93875 1.69125 2.9375 2.5625 C7.17152248 6.19785946 11.57169222 9.60596819 16 13 C15.01 13.33 14.02 13.66 13 14 C12.443125 13.3503125 12.443125 13.3503125 11.875 12.6875 C9.98527521 10.81278906 9.98527521 10.81278906 7.0625 9.6875 C3.39839433 7.668503 2.00594523 5.62613177 0 2 C0 1.34 0 0.68 0 0 Z " fill="#DCEFFE" transform="translate(144,330)"/>
<path d="M0 0 C4.25209792 4.12324647 8.13635705 8.51282966 12 13 C8.7093077 13 7.92713 12.56982633 5.3125 10.75 C4.68988281 10.33234375 4.06726562 9.9146875 3.42578125 9.484375 C2 8 2 8 2 4 C1.01 3.67 0.02 3.34 -1 3 C-0.67 2.01 -0.34 1.02 0 0 Z " fill="#E8FAFC" transform="translate(58,242)"/>
<path d="M0 0 C3.75035445 0.01293226 7.33455199 0.17078482 11 1 C13.625 3.9375 13.625 3.9375 15 7 C15.33 7.66 15.66 8.32 16 9 C10.66666667 6.33333333 5.33333333 3.66666667 0 1 C0 0.67 0 0.34 0 0 Z " fill="#4571DD" transform="translate(218,152)"/>
<path d="M0 0 C2.46800047 1.15173355 4.04783565 2.04783565 6 4 C6.66 4.103125 7.32 4.20625 8 4.3125 C8.66 4.539375 9.32 4.76625 10 5 C10.69658363 6.65438613 11.36096883 8.32254318 12 10 C14.01317219 11.80348078 14.01317219 11.80348078 16 13 C15.67 13.99 15.34 14.98 15 16 C12.49599357 13.5248518 9.99748094 11.04423106 7.5 8.5625 C6.78457031 7.85544922 6.06914062 7.14839844 5.33203125 6.41992188 C4.65527344 5.74638672 3.97851562 5.07285156 3.28125 4.37890625 C2.65283203 3.7557251 2.02441406 3.13254395 1.37695312 2.49047852 C0 1 0 1 0 0 Z " fill="#E7F6FE" transform="translate(314,128)"/>
<path d="M0 0 C2.46800047 1.15173355 4.04783565 2.04783565 6 4 C6.66 4.103125 7.32 4.20625 8 4.3125 C8.66 4.539375 9.32 4.76625 10 5 C10.69658363 6.65438613 11.36096883 8.32254318 12 10 C14.01317219 11.80348078 14.01317219 11.80348078 16 13 C15.67 13.99 15.34 14.98 15 16 C12.49599357 13.5248518 9.99748094 11.04423106 7.5 8.5625 C6.78457031 7.85544922 6.06914062 7.14839844 5.33203125 6.41992188 C4.65527344 5.74638672 3.97851562 5.07285156 3.28125 4.37890625 C2.65283203 3.7557251 2.02441406 3.13254395 1.37695312 2.49047852 C0 1 0 1 0 0 Z " fill="#E7F6FE" transform="translate(298,112)"/>
<path d="M0 0 C2.46800047 1.15173355 4.04783565 2.04783565 6 4 C6.66 4.103125 7.32 4.20625 8 4.3125 C8.66 4.539375 9.32 4.76625 10 5 C10.69658363 6.65438613 11.36096883 8.32254318 12 10 C14.01317219 11.80348078 14.01317219 11.80348078 16 13 C15.67 13.99 15.34 14.98 15 16 C12.49599357 13.5248518 9.99748094 11.04423106 7.5 8.5625 C6.78457031 7.85544922 6.06914062 7.14839844 5.33203125 6.41992188 C4.65527344 5.74638672 3.97851562 5.07285156 3.28125 4.37890625 C2.65283203 3.7557251 2.02441406 3.13254395 1.37695312 2.49047852 C0 1 0 1 0 0 Z " fill="#E7F6FE" transform="translate(282,96)"/>
<path d="M0 0 C2.46800047 1.15173355 4.04783565 2.04783565 6 4 C6.66 4.103125 7.32 4.20625 8 4.3125 C8.66 4.539375 9.32 4.76625 10 5 C10.69658363 6.65438613 11.36096883 8.32254318 12 10 C14.01317219 11.80348078 14.01317219 11.80348078 16 13 C15.67 13.99 15.34 14.98 15 16 C12.49599357 13.5248518 9.99748094 11.04423106 7.5 8.5625 C6.78457031 7.85544922 6.06914062 7.14839844 5.33203125 6.41992188 C4.65527344 5.74638672 3.97851562 5.07285156 3.28125 4.37890625 C2.65283203 3.7557251 2.02441406 3.13254395 1.37695312 2.49047852 C0 1 0 1 0 0 Z " fill="#E7F6FE" transform="translate(266,80)"/>
<path d="M0 0 C-3.63 3.63 -7.26 7.26 -11 11 C-11.33 10.01 -11.66 9.02 -12 8 C-11.34 8 -10.68 8 -10 8 C-9.773125 7.071875 -9.54625 6.14375 -9.3125 5.1875 C-8 2 -8 2 -5.5625 0.0625 C-3 -1 -3 -1 0 0 Z " fill="#E4F3FD" transform="translate(150,66)"/>
<path d="M0 0 C1.27903133 3.83709399 0.50674062 5.30848548 -1 9 C-2.4375 11.375 -2.4375 11.375 -4 13 C-4.99 13 -5.98 13 -7 13 C-7 13.66 -7 14.32 -7 15 C-8.32 15.33 -9.64 15.66 -11 16 C-9.6696875 14.5459375 -9.6696875 14.5459375 -8.3125 13.0625 C-4.85505071 9.05481531 -2.40573888 4.69438427 0 0 Z " fill="#446ADF" transform="translate(246,222)"/>
<path d="M0 0 C0.33 0.66 0.66 1.32 1 2 C-2.16336172 5.88641583 -5.40414808 9.49877576 -9 13 C-9.598125 13.598125 -10.19625 14.19625 -10.8125 14.8125 C-11.204375 15.204375 -11.59625 15.59625 -12 16 C-12.99 15.67 -13.98 15.34 -15 15 C-14.38125 14.7525 -13.7625 14.505 -13.125 14.25 C-10.88261155 13.19037241 -10.88261155 13.19037241 -10.0625 11.125 C-8.62851465 8.2570293 -6.50768261 6.97032205 -4 5 C-2.62631655 3.36643049 -1.28062485 1.7074998 0 0 Z " fill="#CCE0FC" transform="translate(289,296)"/>
<path d="M0 0 C0.33 0.66 0.66 1.32 1 2 C-2.16336172 5.88641583 -5.40414808 9.49877576 -9 13 C-9.598125 13.598125 -10.19625 14.19625 -10.8125 14.8125 C-11.204375 15.204375 -11.59625 15.59625 -12 16 C-12.99 15.67 -13.98 15.34 -15 15 C-14.38125 14.7525 -13.7625 14.505 -13.125 14.25 C-10.88261155 13.19037241 -10.88261155 13.19037241 -10.0625 11.125 C-8.62851465 8.2570293 -6.50768261 6.97032205 -4 5 C-2.62631655 3.36643049 -1.28062485 1.7074998 0 0 Z " fill="#CCE0FC" transform="translate(305,280)"/>
<path d="M0 0 C0.33 0.66 0.66 1.32 1 2 C-2.16336172 5.88641583 -5.40414808 9.49877576 -9 13 C-9.598125 13.598125 -10.19625 14.19625 -10.8125 14.8125 C-11.204375 15.204375 -11.59625 15.59625 -12 16 C-12.99 15.67 -13.98 15.34 -15 15 C-14.38125 14.7525 -13.7625 14.505 -13.125 14.25 C-10.88261155 13.19037241 -10.88261155 13.19037241 -10.0625 11.125 C-8.62851465 8.2570293 -6.50768261 6.97032205 -4 5 C-2.62631655 3.36643049 -1.28062485 1.7074998 0 0 Z " fill="#CCE0FC" transform="translate(321,264)"/>
<path d="M0 0 C0.66 0 1.32 0 2 0 C3.54296875 2.1171875 3.54296875 2.1171875 5.1875 4.875 C5.73792969 5.77992188 6.28835937 6.68484375 6.85546875 7.6171875 C7.23316406 8.40351563 7.61085937 9.18984375 8 10 C7.67 10.66 7.34 11.32 7 12 C6.21625 11.360625 5.4325 10.72125 4.625 10.0625 C2.20460719 8.01857687 2.20460719 8.01857687 0 7 C0 4.69 0 2.38 0 0 Z " fill="#456FDB" transform="translate(153,222)"/>
<path d="M0 0 C3.95819611 -0.08678303 7.91614934 -0.14031733 11.875 -0.1875 C13.00292969 -0.21263672 14.13085938 -0.23777344 15.29296875 -0.26367188 C16.36933594 -0.27333984 17.44570312 -0.28300781 18.5546875 -0.29296875 C20.04718018 -0.31653442 20.04718018 -0.31653442 21.56982422 -0.34057617 C22.37178223 -0.22818604 23.17374023 -0.1157959 24 0 C24.66 0.99 25.32 1.98 26 3 C25.04996094 2.84660156 24.09992188 2.69320312 23.12109375 2.53515625 C18.45038433 1.86791205 13.77201861 1.65596436 9.0625 1.4375 C7.75055664 1.37272461 7.75055664 1.37272461 6.41210938 1.30664062 C4.27488005 1.20153099 2.13745762 1.10036015 0 1 C0 0.67 0 0.34 0 0 Z " fill="#6487E7" transform="translate(192,149)"/>
<path d="M0 0 C4.52615993 3.67832017 8.39424999 7.41086363 12 12 C9.69 11.34 7.38 10.68 5 10 C5 8.68 5 7.36 5 6 C3.68 5.67 2.36 5.34 1 5 C0.67 3.35 0.34 1.7 0 0 Z " fill="#476EDF" transform="translate(315,130)"/>
<path d="M0 0 C4.52615993 3.67832017 8.39424999 7.41086363 12 12 C9.69 11.34 7.38 10.68 5 10 C5 8.68 5 7.36 5 6 C3.68 5.67 2.36 5.34 1 5 C0.67 3.35 0.34 1.7 0 0 Z " fill="#476EDF" transform="translate(299,114)"/>
<path d="M0 0 C4.52615993 3.67832017 8.39424999 7.41086363 12 12 C9.69 11.34 7.38 10.68 5 10 C5 8.68 5 7.36 5 6 C3.68 5.67 2.36 5.34 1 5 C0.67 3.35 0.34 1.7 0 0 Z " fill="#476EDF" transform="translate(283,98)"/>
<path d="M0 0 C4.52615993 3.67832017 8.39424999 7.41086363 12 12 C9.69 11.34 7.38 10.68 5 10 C5 8.68 5 7.36 5 6 C3.68 5.67 2.36 5.34 1 5 C0.67 3.35 0.34 1.7 0 0 Z " fill="#476EDF" transform="translate(267,82)"/>
<path d="M0 0 C1.98 0 3.96 0 6 0 C5.06725891 1.12894876 4.12859878 2.25300876 3.1875 3.375 C2.66542969 4.00148438 2.14335937 4.62796875 1.60546875 5.2734375 C0 7 0 7 -3 9 C-3 7.02 -3 5.04 -3 3 C-2.34 3 -1.68 3 -1 3 C-0.67 2.01 -0.34 1.02 0 0 Z " fill="#2F65E5" transform="translate(259,320)"/>
<path d="M0 0 C0.66 0 1.32 0 2 0 C1.34 7.59 0.68 15.18 0 23 C-0.33 23 -0.66 23 -1 23 C-1.02887512 19.35418313 -1.04675585 15.70839537 -1.0625 12.0625 C-1.07087891 11.02158203 -1.07925781 9.98066406 -1.08789062 8.90820312 C-1.09272461 7.42416992 -1.09272461 7.42416992 -1.09765625 5.91015625 C-1.10289307 4.99371338 -1.10812988 4.07727051 -1.11352539 3.13305664 C-1 1 -1 1 0 0 Z " fill="#3562DD" transform="translate(149,185)"/>
<path d="M0 0 C0.66 0.33 1.32 0.66 2 1 C1.01 2.98 0.02 4.96 -1 7 C-1.556875 6.814375 -2.11375 6.62875 -2.6875 6.4375 C-5.399133 5.92448835 -7.34371039 6.3359276 -10 7 C-7.01767477 3.67356033 -4.13629913 1.70847138 0 0 Z " fill="#E3EEFD" transform="translate(180,153)"/>
<path d="M0 0 C1.98 0 3.96 0 6 0 C3.78310162 4.43379675 1.22271781 6.46636932 -3 9 C-2.01 6.03 -1.02 3.06 0 0 Z " fill="#3367E5" transform="translate(275,304)"/>
<path d="M0 0 C1.98 0 3.96 0 6 0 C3.78310162 4.43379675 1.22271781 6.46636932 -3 9 C-2.01 6.03 -1.02 3.06 0 0 Z " fill="#3367E5" transform="translate(291,288)"/>
<path d="M0 0 C1.98 0 3.96 0 6 0 C3.78310162 4.43379675 1.22271781 6.46636932 -3 9 C-2.01 6.03 -1.02 3.06 0 0 Z " fill="#3367E5" transform="translate(307,272)"/>
<path d="M0 0 C1.98 0 3.96 0 6 0 C3.78310162 4.43379675 1.22271781 6.46636932 -3 9 C-2.01 6.03 -1.02 3.06 0 0 Z " fill="#3267E5" transform="translate(323,256)"/>
<path d="M0 0 C-6.1018894 3.35603917 -12.21459184 4.72773597 -19 6 C-17.42935623 2.85871246 -14.33238922 2.42190313 -11.1875 1.3125 C-10.55779297 1.07466797 -9.92808594 0.83683594 -9.27929688 0.59179688 C-5.86073884 -0.63142274 -3.44077195 -1.43004376 0 0 Z " fill="#4970D5" transform="translate(186,48)"/>
<path d="M0 0 C0 1.65 0 3.3 0 5 C-3.3 5 -6.6 5 -10 5 C-10 4.34 -10 3.68 -10 3 C-8.70990357 2.49596232 -7.41786211 1.99690074 -6.125 1.5 C-5.04605469 1.08234375 -5.04605469 1.08234375 -3.9453125 0.65625 C-2 0 -2 0 0 0 Z " fill="#3B68E6" transform="translate(224,246)"/>
<path d="M0 0 C0.66 0 1.32 0 2 0 C2 0.66 2 1.32 2 2 C2.598125 2.28875 3.19625 2.5775 3.8125 2.875 C6 4 6 4 9 6 C9 6.66 9 7.32 9 8 C9.99 8.33 10.98 8.66 12 9 C12 9.66 12 10.32 12 11 C9.09220751 9.65843569 6.7482101 8.13892965 4.3125 6.0625 C3.71050781 5.55847656 3.10851562 5.05445313 2.48828125 4.53515625 C1 3 1 3 0 0 Z " fill="#D2E8FC" transform="translate(160,231)"/>
<path d="M0 0 C3.48819868 1.16273289 4.3072108 1.78370053 6 5 C5.8125 8.6875 5.8125 8.6875 5 12 C4.01 12.495 4.01 12.495 3 13 C2.01 8.71 1.02 4.42 0 0 Z " fill="#E6F3FC" transform="translate(351,175)"/>
<path d="M0 0 C0.99 0.33 1.98 0.66 3 1 C3.84098656 5.01804691 4.05404945 8.01803543 3 12 C0.50494038 9.50494038 0.64051624 8.32671112 0.375 4.875 C0.30023438 3.96492187 0.22546875 3.05484375 0.1484375 2.1171875 C0.09945312 1.41851562 0.05046875 0.71984375 0 0 Z " fill="#2E66EF" transform="translate(52,224)"/>
<path d="M0 0 C4.06815373 1.84916079 7.0094833 3.66442368 10 7 C6.7 6.67 3.4 6.34 0 6 C0 4.02 0 2.04 0 0 Z " fill="#3B66E4" transform="translate(236,55)"/>
<path d="M0 0 C0.66 0.33 1.32 0.66 2 1 C1.1875 2.9375 1.1875 2.9375 0 5 C-0.99 5.33 -1.98 5.66 -3 6 C-3 6.99 -3 7.98 -3 9 C-4.32 9 -5.64 9 -7 9 C-7 8.01 -7 7.02 -7 6 C-6.01 5.67 -5.02 5.34 -4 5 C-2.61423077 3.37667033 -1.27358732 1.71275535 0 0 Z " fill="#F6FEF1" transform="translate(153,56)"/>
<path d="M0 0 C0.33 1.32 0.66 2.64 1 4 C-0.8125 5.5625 -0.8125 5.5625 -3 7 C-3.99 6.67 -4.98 6.34 -6 6 C-6 6.66 -6 7.32 -6 8 C-7.32 7.67 -8.64 7.34 -10 7 C-6.7 4.69 -3.4 2.38 0 0 Z " fill="#456DDE" transform="translate(234,238)"/>
<path d="M0 0 C2.09191827 2.09191827 2.84257533 3.62239187 4 6.3125 C4.34546875 7.11171875 4.6909375 7.9109375 5.046875 8.734375 C6.06102933 11.14506973 7.0558514 13.56094946 8 16 C7.34 16.33 6.68 16.66 6 17 C2.91099799 11.33492989 0.42335385 6.49142565 0 0 Z " fill="#E6F4FE" transform="translate(151,211)"/>
<path d="M0 0 C4.18659858 3.82774727 7.37820862 7.94607874 10 13 C10 13.66 10 14.32 10 15 C9.34 15 8.68 15 8 15 C7.74605469 14.45730469 7.49210937 13.91460937 7.23046875 13.35546875 C6.71419922 12.28232422 6.71419922 12.28232422 6.1875 11.1875 C5.85105469 10.47980469 5.51460938 9.77210938 5.16796875 9.04296875 C3.99017538 6.98281514 2.68487218 5.64743057 1 4 C0.3125 1.8125 0.3125 1.8125 0 0 Z " fill="#4B6FD9" transform="translate(338,154)"/>
<path d="M0 0 C3.45925163 1.2491742 6.14693203 2.67527795 9 5 C8.67 5.66 8.34 6.32 8 7 C4.84859577 6.65930765 3.39218439 6.41923159 1.1875 4.0625 C0 2 0 2 0 0 Z " fill="#E9F2FB" transform="translate(162,345)"/>
<path d="M0 0 C-2.39060851 1.59373901 -4.30828179 2.65297076 -6.9375 3.6875 C-7.60652344 3.95949219 -8.27554688 4.23148437 -8.96484375 4.51171875 C-11.32830338 5.0787676 -12.7192799 4.76024003 -15 4 C-9.96174932 0.68914955 -5.9781891 -0.1708054 0 0 Z " fill="#466FDE" transform="translate(232,348)"/>
<path d="M0 0 C2.97 0.495 2.97 0.495 6 1 C4.02 3.31 2.04 5.62 0 8 C-1.09658936 4.71023192 -0.79953138 3.28696233 0 0 Z " fill="#E7F7F8" transform="translate(233,232)"/>
<path d="M0 0 C1.32 0 2.64 0 4 0 C4.2475 0.61875 4.495 1.2375 4.75 1.875 C6.20628639 4.35068687 7.37812506 4.95125002 10 6 C9.34 6 8.68 6 8 6 C8 6.66 8 7.32 8 8 C5.04987143 6.63029745 2.4347778 5.17390875 0 3 C0 2.01 0 1.02 0 0 Z " fill="#FAFAF5" transform="translate(314,125)"/>
<path d="M0 0 C1.32 0 2.64 0 4 0 C4.2475 0.61875 4.495 1.2375 4.75 1.875 C6.20628639 4.35068687 7.37812506 4.95125002 10 6 C9.34 6 8.68 6 8 6 C8 6.66 8 7.32 8 8 C5.04987143 6.63029745 2.4347778 5.17390875 0 3 C0 2.01 0 1.02 0 0 Z " fill="#FAFAF5" transform="translate(298,109)"/>
<path d="M0 0 C1.32 0 2.64 0 4 0 C4.2475 0.61875 4.495 1.2375 4.75 1.875 C6.20628639 4.35068687 7.37812506 4.95125002 10 6 C9.34 6 8.68 6 8 6 C8 6.66 8 7.32 8 8 C5.04987143 6.63029745 2.4347778 5.17390875 0 3 C0 2.01 0 1.02 0 0 Z " fill="#FAFAF5" transform="translate(282,93)"/>
<path d="M0 0 C1.32 0 2.64 0 4 0 C4.2475 0.61875 4.495 1.2375 4.75 1.875 C6.20628639 4.35068687 7.37812506 4.95125002 10 6 C9.34 6 8.68 6 8 6 C8 6.66 8 7.32 8 8 C5.04987143 6.63029745 2.4347778 5.17390875 0 3 C0 2.01 0 1.02 0 0 Z " fill="#FAFAF5" transform="translate(266,77)"/>
<path d="M0 0 C5.10196601 -0.08950818 9.98729298 -0.10279554 15 1 C15.66 1.99 16.32 2.98 17 4 C11.27601207 3.25339288 5.65146223 2.17122859 0 1 C0 0.67 0 0.34 0 0 Z " fill="#D5EBFD" transform="translate(208,45)"/>
<path d="M0 0 C1.9375 0.6875 1.9375 0.6875 4 2 C4.6875 4.375 4.6875 4.375 5 7 C5.32483418 8.33542939 5.6550855 9.66961551 6 11 C2.60582235 7.87378374 0.3937282 5.43458973 -1 1 C-0.67 0.67 -0.34 0.34 0 0 Z " fill="#3E69DF" transform="translate(56,235)"/>
<path d="M0 0 C0.66 0 1.32 0 2 0 C2.2475 0.763125 2.495 1.52625 2.75 2.3125 C4.10995558 5.2364045 5.31585826 6.30004356 8 8 C7.67 8.99 7.34 9.98 7 11 C4.03 8.03 1.06 5.06 -2 2 C-1.34 1.34 -0.68 0.68 0 0 Z " fill="#E8F5FE" transform="translate(258,69)"/>
<path d="M0 0 C1.32 0.33 2.64 0.66 4 1 C0.7 3.64 -2.6 6.28 -6 9 C-6.33 8.01 -6.66 7.02 -7 6 C-5.93106782 4.96409662 -4.84421512 3.94666058 -3.75 2.9375 C-3.14671875 2.36902344 -2.5434375 1.80054688 -1.921875 1.21484375 C-1.28765625 0.81394531 -0.6534375 0.41304687 0 0 Z " fill="#E1F4FD" transform="translate(157,56)"/>
<path d="M0 0 C0.99 0.33 1.98 0.66 3 1 C3 1.66 3 2.32 3 3 C3.66 3 4.32 3 5 3 C4.67 4.65 4.34 6.3 4 8 C2.35 6.35 0.7 4.7 -1 3 C-0.67 2.01 -0.34 1.02 0 0 Z " fill="#FAFCF0" transform="translate(133,325)"/>
<path d="M0 0 C0.33 0.66 0.66 1.32 1 2 C-2.07881696 5.87051275 -5.00073014 9.02911382 -9 12 C-9.66 11.67 -10.32 11.34 -11 11 C-10.54109375 10.62488281 -10.0821875 10.24976563 -9.609375 9.86328125 C-5.96703891 6.82545052 -2.82808093 3.84619007 0 0 Z " fill="#C9DDFC" transform="translate(273,312)"/>
<path d="M0 0 C-1.8125 2.5 -1.8125 2.5 -4 5 C-4.99 5 -5.98 5 -7 5 C-6.625 2.5625 -6.625 2.5625 -6 0 C-3.50907189 -1.24546405 -2.58919267 -0.7767578 0 0 Z " fill="#3B6DE4" transform="translate(336,250)"/>
<path d="M0 0 C0.99 0.33 1.98 0.66 3 1 C0.36 4.3 -2.28 7.6 -5 11 C-5.33 10.01 -5.66 9.02 -6 8 C-4.78515625 5.95703125 -4.78515625 5.95703125 -3.0625 3.8125 C-2.49660156 3.09707031 -1.93070313 2.38164062 -1.34765625 1.64453125 C-0.90292969 1.10183594 -0.45820312 0.55914062 0 0 Z " fill="#DAEEFD" transform="translate(62,150)"/>
<path d="M0 0 C3.15111212 2.52952288 3.58798017 4.76756266 4.1875 8.6875 C4.42533203 10.17830078 4.42533203 10.17830078 4.66796875 11.69921875 C4.77753906 12.45847656 4.88710938 13.21773437 5 14 C2.81385576 11.81385576 2.31743465 10.46120051 1.375 7.5625 C1.11460938 6.78003906 0.85421875 5.99757812 0.5859375 5.19140625 C0 3 0 3 0 0 Z " fill="#3E6AD6" transform="translate(48,218)"/>
<path d="M0 0 C0 0.99 0 1.98 0 3 C-0.99 3.66 -1.98 4.32 -3 5 C-4.19232613 7.05003955 -4.19232613 7.05003955 -5 9 C-6.32 8.67 -7.64 8.34 -9 8 C-6.03 5.36 -3.06 2.72 0 0 Z " fill="#486DDA" transform="translate(157,59)"/>
<path d="M0 0 C0.99 0 1.98 0 3 0 C3.33 1.32 3.66 2.64 4 4 C1.525 5.485 1.525 5.485 -1 7 C-0.67 4.69 -0.34 2.38 0 0 Z " fill="#3364EB" transform="translate(248,218)"/>
<path d="M0 0 C0.556875 0.226875 1.11375 0.45375 1.6875 0.6875 C0.05337557 2.39590281 -1.18156094 3.62203047 -3.3125 4.6875 C-5.4375 3.75 -5.4375 3.75 -7.3125 2.6875 C-2.88173077 -0.38942308 -2.88173077 -0.38942308 0 0 Z " fill="#E5F2FD" transform="translate(239.3125,345.3125)"/>
<path d="M0 0 C1.65 0 3.3 0 5 0 C2.14723863 2.93200474 -0.65079784 5.64315404 -4 8 C-2.66666667 5.33333333 -1.33333333 2.66666667 0 0 Z " fill="#4A71DD" transform="translate(249,332)"/>
<path d="M0 0 C1.32 0 2.64 0 4 0 C5.32 2.64 6.64 5.28 8 8 C7.01 8.495 7.01 8.495 6 9 C4.99712471 7.68969568 3.99777175 6.37669473 3 5.0625 C2.443125 4.33160156 1.88625 3.60070312 1.3125 2.84765625 C0 1 0 1 0 0 Z " fill="#DDEEFE" transform="translate(336,150)"/>
<path d="M0 0 C2.64 0 5.28 0 8 0 C4.71536341 2.18975773 1.79303725 2.99806563 -2 4 C-1.34 2.68 -0.68 1.36 0 0 Z " fill="#FAFDEE" transform="translate(216,355)"/>
<path d="M0 0 C0 4.38968456 -2.12805101 5.76905739 -5 9 C-5.99 8.67 -6.98 8.34 -8 8 C-7.38125 7.7525 -6.7625 7.505 -6.125 7.25 C-3.61104784 5.77120461 -3.1465949 4.62078835 -2 2 C-1.34 1.34 -0.68 0.68 0 0 Z " fill="#C5DBFC" transform="translate(330,255)"/>
<path d="M0 0 C2.97 0 5.94 0 9 0 C9.33 0.99 9.66 1.98 10 3 C6.6875 3.1875 6.6875 3.1875 3 3 C2.01 2.01 1.02 1.02 0 0 Z " fill="#EEF6FB" transform="translate(172,242)"/>
<path d="M0 0 C2 2 2 2 2 5 C-0.5 7.1875 -0.5 7.1875 -3 9 C-3 5.30581799 -1.71820705 3.22163822 0 0 Z " fill="#D2E6F9" transform="translate(348,231)"/>
<path d="M0 0 C1 3 1 3 0 6 C-0.99 6.66 -1.98 7.32 -3 8 C-3.99 7.67 -4.98 7.34 -6 7 C-4.02 4.69 -2.04 2.38 0 0 Z " fill="#D0E8FC" transform="translate(340,244)"/>
<path d="M0 0 C4.875 4.75 4.875 4.75 6 7 C4.68 7.33 3.36 7.66 2 8 C2 6.68 2 5.36 2 4 C1.01 3.67 0.02 3.34 -1 3 C-0.67 2.01 -0.34 1.02 0 0 Z " fill="#D2E5FC" transform="translate(58,242)"/>
<path d="M0 0 C2.475 0.495 2.475 0.495 5 1 C5.33 2.98 5.66 4.96 6 7 C5.01 7.495 5.01 7.495 4 8 C2.68 5.36 1.36 2.72 0 0 Z " fill="#4770E1" transform="translate(242,171)"/>
<path d="M0 0 C0.33 1.32 0.66 2.64 1 4 C-1.64 4.33 -4.28 4.66 -7 5 C-2.25 1.125 -2.25 1.125 0 0 Z " fill="#486FDF" transform="translate(165,54)"/>
<path d="M0 0 C1.14926266 0.95421808 2.29430541 1.91352045 3.4375 2.875 C4.07558594 3.40867187 4.71367187 3.94234375 5.37109375 4.4921875 C7 6 7 6 8 8 C5.62051228 7.82374165 4.29774151 7.30280227 2.62109375 5.59765625 C1.37884514 4.09350908 0.18623944 2.54870149 -1 1 C-0.67 0.67 -0.34 0.34 0 0 Z " fill="#E6F5FE" transform="translate(136,322)"/>
<path d="M0 0 C1.14926266 0.95421808 2.29430541 1.91352045 3.4375 2.875 C4.07558594 3.40867187 4.71367188 3.94234375 5.37109375 4.4921875 C7 6 7 6 8 8 C5.62051228 7.82374165 4.29774151 7.30280227 2.62109375 5.59765625 C1.37884514 4.09350908 0.18623944 2.54870149 -1 1 C-0.67 0.67 -0.34 0.34 0 0 Z " fill="#E6F5FE" transform="translate(120,306)"/>
<path d="M0 0 C1.14926266 0.95421808 2.29430541 1.91352045 3.4375 2.875 C4.07558594 3.40867187 4.71367188 3.94234375 5.37109375 4.4921875 C7 6 7 6 8 8 C5.62051228 7.82374165 4.29774151 7.30280227 2.62109375 5.59765625 C1.37884514 4.09350908 0.18623944 2.54870149 -1 1 C-0.67 0.67 -0.34 0.34 0 0 Z " fill="#E6F5FE" transform="translate(104,290)"/>
<path d="M0 0 C1.14926266 0.95421808 2.29430541 1.91352045 3.4375 2.875 C4.07558594 3.40867187 4.71367188 3.94234375 5.37109375 4.4921875 C7 6 7 6 8 8 C5.62051228 7.82374165 4.29774151 7.30280227 2.62109375 5.59765625 C1.37884514 4.09350908 0.18623944 2.54870149 -1 1 C-0.67 0.67 -0.34 0.34 0 0 Z " fill="#E6F5FE" transform="translate(88,274)"/>
<path d="M0 0 C1.14926266 0.95421808 2.29430541 1.91352045 3.4375 2.875 C4.07558594 3.40867187 4.71367188 3.94234375 5.37109375 4.4921875 C7 6 7 6 8 8 C5.62051228 7.82374165 4.29774151 7.30280227 2.62109375 5.59765625 C1.37884514 4.09350908 0.18623944 2.54870149 -1 1 C-0.67 0.67 -0.34 0.34 0 0 Z " fill="#E6F5FE" transform="translate(72,258)"/>
<path d="M0 0 C2.97 0.33 5.94 0.66 9 1 C9 1.33 9 1.66 9 2 C4.545 2.495 4.545 2.495 0 3 C0 2.01 0 1.02 0 0 Z " fill="#3865E3" transform="translate(181,249)"/>
<path d="M0 0 C2.31 0.33 4.62 0.66 7 1 C6.67 1.99 6.34 2.98 6 4 C4.35 3.67 2.7 3.34 1 3 C0.67 2.01 0.34 1.02 0 0 Z " fill="#FBFDF0" transform="translate(181,243)"/>
<path d="M0 0 C0.66 0.33 1.32 0.66 2 1 C1.34 3.97 0.68 6.94 0 10 C-0.33 10 -0.66 10 -1 10 C-1.02689216 8.52093108 -1.04634621 7.04172517 -1.0625 5.5625 C-1.07410156 4.73878906 -1.08570313 3.91507813 -1.09765625 3.06640625 C-1 1 -1 1 0 0 Z " fill="#FAFDF0" transform="translate(356,214)"/>
<path d="M0 0 C5.875 4.625 5.875 4.625 7 8 C6.34 8 5.68 8 5 8 C5 7.34 5 6.68 5 6 C3.68 5.67 2.36 5.34 1 5 C0.67 3.35 0.34 1.7 0 0 Z " fill="#4870DA" transform="translate(331,146)"/>
<path d="M0 0 C1.98 1.65 3.96 3.3 6 5 C5.67 6.32 5.34 7.64 5 9 C4.16094435 7.87926138 3.32892169 6.75325453 2.5 5.625 C2.0359375 4.99851562 1.571875 4.37203125 1.09375 3.7265625 C0 2 0 2 0 0 Z " fill="#E5F9FA" transform="translate(144,330)"/>
<path d="M0 0 C1.875 0.1875 1.875 0.1875 4 1 C5.25 3.5625 5.25 3.5625 6 6 C4.35 5.67 2.7 5.34 1 5 C1.33 4.01 1.66 3.02 2 2 C1.34 2 0.68 2 0 2 C0 1.34 0 0.68 0 0 Z " fill="#FAF9F6" transform="translate(140,329)"/>
<path d="M0 0 C0.66 0 1.32 0 2 0 C1.46930939 3.82097239 0.50298434 6.06171403 -2 9 C-1.125 1.125 -1.125 1.125 0 0 Z " fill="#3D6AD4" transform="translate(349,224)"/>
<path d="M0 0 C1.32 0 2.64 0 4 0 C4 0.99 4 1.98 4 3 C4.66 3 5.32 3 6 3 C6 3.66 6 4.32 6 5 C3.83125748 4.49396008 2.00032373 4.00016187 0 3 C0 2.01 0 1.02 0 0 Z " fill="#FAF9F3" transform="translate(330,141)"/>
<path d="M0 0 C0.99 0.33 1.98 0.66 3 1 C-0.465 3.97 -0.465 3.97 -4 7 C-3.67 5.68 -3.34 4.36 -3 3 C-2.01 2.67 -1.02 2.34 0 2 C0 1.34 0 0.68 0 0 Z " fill="#DAF0FD" transform="translate(84,128)"/>
<path d="M0 0 C0.99 0.33 1.98 0.66 3 1 C-0.465 3.97 -0.465 3.97 -4 7 C-3.67 5.68 -3.34 4.36 -3 3 C-2.01 2.67 -1.02 2.34 0 2 C0 1.34 0 0.68 0 0 Z " fill="#DAF0FD" transform="translate(100,112)"/>
<path d="M0 0 C0.99 0.33 1.98 0.66 3 1 C-0.465 3.97 -0.465 3.97 -4 7 C-3.67 5.68 -3.34 4.36 -3 3 C-2.01 2.67 -1.02 2.34 0 2 C0 1.34 0 0.68 0 0 Z " fill="#DAF0FD" transform="translate(116,96)"/>
<path d="M0 0 C0.99 0.33 1.98 0.66 3 1 C-0.465 3.97 -0.465 3.97 -4 7 C-3.67 5.68 -3.34 4.36 -3 3 C-2.01 2.67 -1.02 2.34 0 2 C0 1.34 0 0.68 0 0 Z " fill="#DAF0FD" transform="translate(132,80)"/>
</svg>
